name C:\Users\antoi\Documents\MyRepositories\upper-imu-dc\Results\main_tracking\Case_76\FLX01_linearAccelerations_bodyFrame.mot
datacolumns 4
datarows 129
range 3.51000000 4.79000000
endheader 
time	radius_imu_x	radius_imu_y	radius_imu_z	
          3.51000000	         -0.57182965	         -9.45645118	          2.37606438	
          3.52000000	         -0.60947067	         -9.45605820	          2.37181719	
          3.53000000	         -0.64209170	         -9.45505583	          2.37289313	
          3.54000000	         -0.66923523	         -9.45351924	          2.37930708	
          3.55000000	         -0.69063095	         -9.45155412	          2.39073947	
          3.56000000	         -0.70626449	         -9.44929530	          2.40655582	
          3.57000000	         -0.71623049	         -9.44690024	          2.42582149	
          3.58000000	         -0.72062770	         -9.44452874	          2.44735862	
          3.59000000	         -0.71957427	         -9.44231594	          2.46985534	
          3.60000000	         -0.71316753	         -9.44035074	          2.49198081	
          3.61000000	         -0.70143764	         -9.43866674	          2.51250251	
          3.62000000	         -0.68440112	         -9.43723550	          2.53040289	
          3.63000000	         -0.66207790	         -9.43598814	          2.54492629	
          3.64000000	         -0.63437398	         -9.43483212	          2.55555782	
          3.65000000	         -0.60122430	         -9.43363639	          2.56205324	
          3.66000000	         -0.56260676	         -9.43224756	          2.56442121	
          3.67000000	         -0.51858503	         -9.43054630	          2.56289916	
          3.68000000	         -0.46914230	         -9.42839787	          2.55793784	
          3.69000000	         -0.41424324	         -9.42565861	          2.55008907	
          3.70000000	         -0.35441946	         -9.42221227	          2.53992664	
          3.71000000	         -0.29051751	         -9.41794045	          2.52813189	
          3.72000000	         -0.22362827	         -9.41277468	          2.51521720	
          3.73000000	         -0.15439772	         -9.40671459	          2.50128977	
          3.74000000	         -0.08247483	         -9.39975587	          2.48629156	
          3.75000000	         -0.00986400	         -9.39187583	          2.47166620	
          3.76000000	          0.06113859	         -9.38305061	          2.45902527	
          3.77000000	          0.13092833	         -9.37320978	          2.44839081	
          3.78000000	          0.19880665	         -9.36227634	          2.43992815	
          3.79000000	          0.26340765	         -9.35008275	          2.43418767	
          3.80000000	          0.32368709	         -9.33643600	          2.43178270	
          3.81000000	          0.37895952	         -9.32117079	          2.43321728	
          3.82000000	          0.42868257	         -9.30414674	          2.43886909	
          3.83000000	          0.47240067	         -9.28532423	          2.44898090	
          3.84000000	          0.50975402	         -9.26475737	          2.46363180	
          3.85000000	          0.54047672	         -9.24255179	          2.48273676	
          3.86000000	          0.56440134	         -9.21886441	          2.50598368	
          3.87000000	          0.58145885	         -9.19388531	          2.53283636	
          3.88000000	          0.59165268	         -9.16780382	          2.56255816	
          3.89000000	          0.59502111	         -9.14078577	          2.59424559	
          3.90000000	          0.59161661	         -9.11296936	          2.62687519	
          3.91000000	          0.58151647	         -9.08445278	          2.65936790	
          3.92000000	          0.56483758	         -9.05529268	          2.69065341	
          3.93000000	          0.54171960	         -9.02550178	          2.71971423	
          3.94000000	          0.51223778	         -8.99502950	          2.74561830	
          3.95000000	          0.47632395	         -8.96375197	          2.76755752	
          3.96000000	          0.43384721	         -8.93148732	          2.78488359	
          3.97000000	          0.38454278	         -8.89802273	          2.79721363	
          3.98000000	          0.32799677	         -8.86315639	          2.80447738	
          3.99000000	          0.26375922	         -8.82672801	          2.80697664	
          4.00000000	          0.19126478	         -8.78862890	          2.80538946	
          4.01000000	          0.10989926	         -8.74880007	          2.80074727	
          4.02000000	          0.01904453	         -8.70723303	          2.79436603	
          4.03000000	         -0.08189010	         -8.66396559	          2.78774352	
          4.04000000	         -0.19342894	         -8.61906837	          2.78242601	
          4.05000000	         -0.31600516	         -8.57262816	          2.77987790	
          4.06000000	         -0.44993193	         -8.52473131	          2.78138060	
          4.07000000	         -0.59534912	         -8.47544874	          2.78798101	
          4.08000000	         -0.75215312	         -8.42482340	          2.80049054	
          4.09000000	         -0.91991176	         -8.37286172	          2.81950278	
          4.10000000	         -1.09777977	         -8.31953083	          2.84539157	
          4.11000000	         -1.28444754	         -8.26476094	          2.87826697	
          4.12000000	         -1.47814119	         -8.20845355	          2.91791474	
          4.13000000	         -1.67667798	         -8.15050264	          2.96376780	
          4.14000000	         -1.87756643	         -8.09082704	          3.01494137	
          4.15000000	         -2.07813430	         -8.02939672	          3.07032537	
          4.16000000	         -2.27566634	         -7.96623486	          3.12870274	
          4.17000000	         -2.46753138	         -7.90139282	          3.18886327	
          4.18000000	         -2.65127484	         -7.83491282	          3.24969703	
          4.19000000	         -2.82469445	         -7.76679788	          3.31031320	
          4.20000000	         -2.98587971	         -7.69699447	          3.37014109	
          4.21000000	         -3.13326984	         -7.62537940	          3.42903646	
          4.22000000	         -3.26573496	         -7.55174185	          3.48734163	
          4.23000000	         -3.38267049	         -7.47577289	          3.54586427	
          4.24000000	         -3.48407973	         -7.39708442	          3.60576585	
          4.25000000	         -3.57062656	         -7.31527221	          3.66837546	
          4.26000000	         -3.64365105	         -7.23000833	          3.73496922	
          4.27000000	         -3.70511284	         -7.14112059	          3.80656495	
          4.28000000	         -3.75740670	         -7.04863294	          3.88377709	
          4.29000000	         -3.80307011	         -6.95276710	          3.96675303	
          4.30000000	         -3.84447930	         -6.85391401	          4.05517606	
          4.31000000	         -3.88364212	         -6.75257362	          4.14830567	
          4.32000000	         -3.92210152	         -6.64927028	          4.24503689	
          4.33000000	         -3.96089916	         -6.54446137	          4.34397904	
          4.34000000	         -4.00056511	         -6.43846148	          4.44356815	
          4.35000000	         -4.04114529	         -6.33139800	          4.54222271	
          4.36000000	         -4.08225710	         -6.22320722	          4.63853265	
          4.37000000	         -4.12314863	         -6.11366848	          4.73144385	
          4.38000000	         -4.16278094	         -6.00246122	          4.82039109	
          4.39000000	         -4.19996883	         -5.88922626	          4.90534944	
          4.40000000	         -4.23356022	         -5.77362128	          4.98678140	
          4.41000000	         -4.26258322	         -5.65536374	          5.06547106	
          4.42000000	         -4.28630125	         -5.53424666	          5.14227200	
          4.43000000	         -4.30419012	         -5.41012239	          5.21783615	
          4.44000000	         -4.31590661	         -5.28287190	          5.29241927	
          4.45000000	         -4.32130550	         -5.15237809	          5.36584956	
          4.46000000	         -4.32051650	         -5.01850566	          5.43767442	
          4.47000000	         -4.31403473	         -4.88108833	          5.50740869	
          4.48000000	         -4.30283253	         -4.73993421	          5.57474386	
          4.49000000	         -4.28832244	         -4.59485296	          5.63966087	
          4.50000000	         -4.27222767	         -4.44569072	          5.70241367	
          4.51000000	         -4.25637819	         -4.29235620	          5.76344581	
          4.52000000	         -4.24252673	         -4.13482290	          5.82332270	
          4.53000000	         -4.23231450	         -3.97310828	          5.88274943	
          4.54000000	         -4.22715445	         -3.80724489	          5.94264667	
          4.55000000	         -4.22789652	         -3.63726429	          6.00424051	
          4.56000000	         -4.23502063	         -3.46318767	          6.06907667	
          4.57000000	         -4.24841882	         -3.28504614	          6.13895067	
          4.58000000	         -4.26744433	         -3.10289843	          6.21577229	
          4.59000000	         -4.29106003	         -2.91685087	          6.30141806	
          4.60000000	         -4.31803325	         -2.72708585	          6.39758095	
          4.61000000	         -4.34712263	         -2.53389956	          6.50562192	
          4.62000000	         -4.37717814	         -2.33772846	          6.62644305	
          4.63000000	         -4.40714349	         -2.13914439	          6.76038345	
          4.64000000	         -4.43595366	         -1.93881448	          6.90714396	
          4.65000000	         -4.46241426	         -1.73743571	          7.06574033	
          4.66000000	         -4.48544109	         -1.53566952	          7.23452879	
          4.67000000	         -4.50433037	         -1.33411011	          7.41126601	
          4.68000000	         -4.51841518	         -1.13328241	          7.59325978	
          4.69000000	         -4.52752349	         -0.93363861	          7.77756795	
          4.70000000	         -4.53184508	         -0.73556438	          7.96120045	
          4.71000000	         -4.53180197	         -0.53939158	          8.14127008	
          4.72000000	         -4.52802045	         -0.34541461	          8.31510291	
          4.73000000	         -4.52131790	         -0.15391041	          8.48030744	
          4.74000000	         -4.51262771	          0.03484506	          8.63484983	
          4.75000000	         -4.50283839	          0.22057751	          8.77718404	
          4.76000000	         -4.49259514	          0.40303318	          8.90642576	
          4.77000000	         -4.48215295	          0.58200948	          9.02248754	
          4.78000000	         -4.47134074	          0.75738051	          9.12607614	
          4.79000000	         -4.45960249	          0.92910375	          9.21851465	
